<svg width="319" height="69" viewBox="0 0 319 69" fill="none" xmlns="http://www.w3.org/2000/svg">
<mask id="mask0_1065_573" style="mask-type:luminance" maskUnits="userSpaceOnUse" x="0" y="0" width="319" height="69">
<path d="M319 0H0V68.3571H319V0Z" fill="white"/>
</mask>
<g mask="url(#mask0_1065_573)">
<path d="M32.805 29.665C33.566 29.665 34.176 30.272 34.176 31.011C34.176 31.75 33.562 32.353 32.805 32.353H29.458V35.643C29.458 36.386 28.839 36.985 28.087 36.985C27.334 36.985 26.72 36.382 26.72 35.643V32.353H23.368C22.611 32.353 22.001 31.75 22.001 31.011C22.001 30.272 22.615 29.665 23.368 29.665H26.72V26.379C26.72 25.632 27.334 25.037 28.087 25.037C28.839 25.037 29.458 25.636 29.458 26.379V29.665H32.805Z" fill="white"/>
<path d="M44.647 40.663C45.391 40.803 45.871 41.512 45.728 42.242C44.825 46.755 40.768 50.033 36.075 50.033C31.382 50.033 27.321 46.755 26.417 42.242C26.275 41.512 26.759 40.803 27.499 40.663C28.242 40.518 28.96 40.994 29.107 41.72C29.756 44.981 32.689 47.341 36.075 47.341C39.462 47.341 42.39 44.981 43.038 41.72C43.185 40.99 43.903 40.518 44.647 40.663Z" fill="white"/>
<path d="M49.331 29.666C50.092 29.666 50.702 30.273 50.702 31.012C50.702 31.751 50.088 32.354 49.331 32.354H39.89C39.133 32.354 38.523 31.751 38.523 31.012C38.523 30.273 39.137 29.666 39.89 29.666H49.331Z" fill="white"/>
<path d="M71.168 30.821C72.452 29.598 72.881 27.985 72.634 26.494C72.625 26.426 72.612 26.363 72.595 26.295C72.595 26.274 72.586 26.248 72.582 26.227C72.491 25.824 72.353 25.437 72.167 25.064L72.145 25.025C71.458 23.679 70.143 22.618 68.37 22.363L53.496 20.24C50.909 19.875 48.686 18.283 47.527 15.99L40.88 2.756C39.024 -0.929001 33.674 -0.929001 31.819 2.756L25.171 15.99C24.017 18.287 21.789 19.875 19.203 20.24L4.32899 22.363C0.185993 22.958 -1.462 27.946 1.535 30.812L12.296 41.117C14.169 42.9 15.021 45.477 14.575 48.004L12.032 62.545C11.695 64.494 12.525 66.226 13.887 67.271C13.939 67.309 13.987 67.347 14.043 67.381C14.091 67.415 14.138 67.449 14.186 67.479C14.406 67.632 14.644 67.763 14.891 67.874C14.951 67.904 15.008 67.929 15.072 67.95C15.31 68.052 15.565 68.137 15.825 68.196C15.933 68.226 16.046 68.247 16.162 68.264C16.245 68.281 16.331 68.294 16.413 68.303C16.482 68.311 16.547 68.32 16.616 68.324C17.131 68.371 17.667 68.332 18.195 68.201C18.489 68.133 18.783 68.031 19.077 67.904C19.173 67.857 19.272 67.814 19.367 67.763L32.671 60.898C34.98 59.705 37.736 59.705 40.045 60.898L53.349 67.763C57.051 69.67 61.385 66.587 60.675 62.541L58.132 47.999C57.695 45.473 58.547 42.9 60.412 41.113L71.177 30.808L71.168 30.821ZM21.997 31.016C21.997 30.273 22.611 29.67 23.363 29.67H26.715V26.384C26.715 25.637 27.33 25.042 28.082 25.042C28.835 25.042 29.453 25.641 29.453 26.384V29.67H32.801C33.562 29.67 34.172 30.277 34.172 31.016C34.172 31.755 33.558 32.358 32.801 32.358H29.453V35.648C29.453 36.391 28.835 36.99 28.082 36.99C27.33 36.99 26.715 36.387 26.715 35.648V32.358H23.363C22.607 32.358 21.997 31.755 21.997 31.016ZM45.728 42.242C44.824 46.755 40.767 50.033 36.075 50.033C31.382 50.033 27.321 46.755 26.417 42.242C26.274 41.512 26.759 40.803 27.498 40.663C28.242 40.518 28.96 40.994 29.107 41.72C29.756 44.981 32.688 47.341 36.075 47.341C39.461 47.341 42.389 44.981 43.038 41.72C43.185 40.989 43.903 40.518 44.647 40.663C45.391 40.803 45.871 41.512 45.728 42.242ZM49.331 32.358H39.889C39.132 32.358 38.523 31.755 38.523 31.016C38.523 30.277 39.137 29.67 39.889 29.67H49.331C50.092 29.67 50.702 30.277 50.702 31.016C50.702 31.755 50.088 32.358 49.331 32.358Z" fill="#90B823"/>
<g opacity="0.22">
<path d="M71.168 30.82L60.403 41.125C58.539 42.908 57.687 45.485 58.124 48.007L60.667 62.549C61.377 66.599 57.043 69.682 53.341 67.771L40.037 60.906C37.727 59.713 34.972 59.713 32.663 60.906L19.359 67.771C19.264 67.822 19.164 67.865 19.069 67.911C18.775 68.039 18.481 68.136 18.187 68.209C17.659 68.34 17.123 68.378 16.608 68.332C16.539 68.332 16.474 68.319 16.405 68.31C16.323 68.302 16.236 68.289 16.154 68.272C16.042 68.251 15.929 68.23 15.817 68.204C15.557 68.141 15.306 68.06 15.064 67.958C14.999 67.933 14.943 67.907 14.883 67.882C14.636 67.771 14.398 67.64 14.178 67.487C14.13 67.453 14.082 67.419 14.035 67.389L21.128 63.886L21.383 63.763L33.095 57.713C35.132 56.664 37.559 56.664 39.587 57.713L51.299 63.763L51.554 63.886L54.136 65.164C56.321 66.238 58.807 64.396 58.349 62.035L57.41 57.203V57.195L55.512 46.355C55.127 44.131 55.875 41.863 57.519 40.293L66.307 31.886L72.574 26.23C72.574 26.23 72.583 26.277 72.587 26.298C72.604 26.366 72.617 26.43 72.626 26.498C72.872 27.988 72.444 29.602 71.16 30.824L71.168 30.82Z" fill="#63991D"/>
</g>
<path d="M129.737 50.677L128.275 16.664H117.385L115.651 20.965C116.442 22.816 116.619 24.99 116.174 27.461C115.763 29.762 114.825 31.762 113.389 33.409C112.329 34.624 110.993 35.655 109.397 36.492L109.258 36.84L113.064 50.673H113.125L114.76 45.663H120.477L120.313 50.673H129.733L129.737 50.677ZM116.944 38.797L121.105 26.192L120.784 38.797H116.94H116.944Z" fill="#007535"/>
<path d="M87.119 50.677L93.226 16.664H104.354C108.121 16.664 110.915 17.602 112.744 19.483C114.574 21.364 115.197 23.916 114.617 27.147C114.263 29.134 113.471 30.832 112.243 32.238C111.019 33.643 109.358 34.764 107.26 35.6L111.412 50.673H101.162L99.16 37.511L96.794 50.673H87.11L87.119 50.677ZM101.642 23.725L100.185 31.83C101.504 31.8 102.52 31.461 103.238 30.815C103.956 30.17 104.436 29.155 104.687 27.775C104.929 26.425 104.825 25.41 104.38 24.735C103.934 24.056 103.147 23.721 102.023 23.721H101.642V23.725Z" fill="#90B823"/>
<path d="M164.636 50.962H156.068L146.929 35.027V50.962H139.499V16.855H150.13C154.355 16.855 157.517 17.658 159.623 19.267C161.73 20.876 162.781 23.292 162.781 26.523C162.781 28.867 162.063 30.871 160.622 32.535C159.182 34.195 157.322 35.168 155.043 35.448L164.632 50.966L164.636 50.962ZM146.929 31.389H148.045C151.051 31.389 153.036 31.066 154.001 30.421C154.965 29.775 155.45 28.655 155.45 27.054C155.45 25.453 154.931 24.184 153.897 23.479C152.859 22.774 150.908 22.417 148.045 22.417H146.929V31.389Z" fill="#45556C"/>
<path d="M190.245 41.179H172.754C173.022 42.826 173.632 44.057 174.584 44.873C175.531 45.688 176.824 46.095 178.45 46.095C179.683 46.095 180.747 45.862 181.642 45.395C182.537 44.928 183.281 44.223 183.887 43.276L189.345 45.955C188.078 47.959 186.547 49.445 184.739 50.418C182.935 51.39 180.79 51.874 178.308 51.874C174.54 51.874 171.56 50.77 169.359 48.566C167.158 46.363 166.059 43.395 166.059 39.667C166.059 35.94 167.21 33.129 169.51 30.815C171.811 28.501 174.761 27.342 178.351 27.342C181.941 27.342 184.981 28.424 187.131 30.594C189.284 32.759 190.357 35.714 190.357 39.459C190.357 39.663 190.348 39.884 190.331 40.122C190.314 40.364 190.283 40.716 190.236 41.183L190.245 41.179ZM183.554 37.171C183.363 35.727 182.831 34.636 181.954 33.897C181.076 33.159 179.877 32.789 178.359 32.789C176.841 32.789 175.626 33.159 174.718 33.897C173.81 34.636 173.226 35.727 172.975 37.171H183.558H183.554Z" fill="#45556C"/>
<path d="M201.118 50.962L191.646 28.107H199.452L203.392 39.991C203.708 40.955 203.963 41.847 204.154 42.67C204.344 43.494 204.478 44.301 204.556 45.095C204.746 43.897 204.937 42.883 205.127 42.042C205.317 41.201 205.538 40.441 205.793 39.758L209.755 28.107H217.444L207.882 50.962H201.118Z" fill="#45556C"/>
<path d="M220.031 18.719C220.031 17.662 220.42 16.754 221.194 15.994C221.968 15.234 222.894 14.852 223.971 14.852C225.048 14.852 225.999 15.229 226.782 15.981C227.565 16.732 227.959 17.645 227.959 18.719C227.959 19.794 227.565 20.707 226.782 21.471C225.999 22.231 225.061 22.613 223.971 22.613C222.881 22.613 221.968 22.226 221.194 21.45C220.42 20.673 220.031 19.764 220.031 18.724V18.719ZM220.623 50.966V28.111H227.362V50.966H220.623Z" fill="#45556C"/>
<path d="M256.962 41.179H239.472C239.74 42.826 240.35 44.057 241.301 44.873C242.248 45.688 243.542 46.095 245.168 46.095C246.4 46.095 247.464 45.862 248.36 45.395C249.255 44.928 249.999 44.223 250.604 43.276L256.062 45.955C254.795 47.959 253.264 49.445 251.456 50.418C249.653 51.39 247.508 51.874 245.025 51.874C241.258 51.874 238.278 50.77 236.077 48.566C233.875 46.363 232.777 43.395 232.777 39.667C232.777 35.94 233.927 33.129 236.228 30.815C238.529 28.501 241.479 27.342 245.068 27.342C248.658 27.342 251.699 28.424 253.848 30.594C256.002 32.759 257.075 35.714 257.075 39.459C257.075 39.663 257.066 39.884 257.049 40.122C257.031 40.364 257.001 40.716 256.953 41.183L256.962 41.179ZM250.271 37.171C250.081 35.727 249.549 34.636 248.671 33.897C247.793 33.159 246.595 32.789 245.077 32.789C243.559 32.789 242.344 33.159 241.435 33.897C240.527 34.636 239.943 35.727 239.692 37.171H250.276H250.271Z" fill="#45556C"/>
<path d="M282.307 28.108L285.676 39.945C285.741 40.179 285.823 40.59 285.927 41.181C286.03 41.771 286.216 42.981 286.485 44.815C286.627 44.102 286.805 43.346 287.017 42.556C287.228 41.762 287.497 40.879 287.812 39.898L291.445 28.108H298.802L290.732 50.963H283.518L280.027 39.126C279.962 38.909 279.863 38.557 279.72 38.077C279.197 36.289 278.816 34.829 278.583 33.695C278.375 34.752 278.176 35.716 277.977 36.582C277.778 37.453 277.571 38.268 277.35 39.028L273.765 50.959H266.572L258.502 28.104H265.885L269.444 39.448C269.76 40.471 270.019 41.401 270.227 42.233C270.43 43.066 270.607 43.915 270.75 44.785C270.876 43.838 271.027 42.926 271.2 42.047C271.373 41.168 271.581 40.319 271.818 39.495L274.928 28.104H282.311L282.307 28.108Z" fill="#45556C"/>
<path d="M299.516 46.959L304.714 44.327C304.887 45.214 305.354 45.91 306.116 46.424C306.877 46.938 307.815 47.192 308.94 47.192C310.064 47.192 310.916 46.993 311.552 46.598C312.184 46.203 312.504 45.655 312.504 44.955C312.504 43.851 311.379 42.93 309.134 42.182C308.438 41.949 307.885 41.754 307.474 41.601C304.736 40.59 302.842 39.576 301.791 38.548C300.74 37.525 300.212 36.255 300.212 34.752C300.212 32.515 301.107 30.706 302.893 29.322C304.68 27.938 307.037 27.25 309.965 27.25C312.054 27.25 313.862 27.662 315.388 28.486C316.915 29.309 318.027 30.473 318.723 31.98L313.762 34.404C313.494 33.551 313.027 32.901 312.361 32.46C311.695 32.018 310.864 31.797 309.87 31.797C308.875 31.797 308.066 32.001 307.448 32.404C306.829 32.808 306.522 33.334 306.522 33.988C306.522 35.122 308.058 36.179 311.128 37.155C311.492 37.266 311.768 37.351 311.959 37.41C314.506 38.234 316.318 39.193 317.395 40.289C318.472 41.384 319.008 42.777 319.008 44.471C319.008 46.738 318.113 48.543 316.327 49.876C314.541 51.213 312.127 51.88 309.087 51.88C306.682 51.88 304.628 51.442 302.928 50.564C301.228 49.685 300.091 48.487 299.524 46.963L299.516 46.959Z" fill="#45556C"/>
</g>
</svg>
